<?xml version="1.0" encoding="utf-8"?>
<svg version="1.1" xmlns="http://www.w3.org/2000/svg" xmlns:xlink="http://www.w3.org/1999/xlink" x="0px"
	 y="0px" viewBox="0 0 120.36 24.91" style="enable-background:new 0 0 120.36 24.91;" xml:space="preserve">
<style type="text/css">
	.st0{fill:#C3C8C8;}
	.st1{fill:#0072B9;}
</style>
<g>
	<g>
		<path class="st0" d="M93.64,0c-1.19,0-2.82,0-4.36,0H89.2h-1.22h-3.15h-0.08c0,0,0.08,0.5,0.08,1.09c0,0.58,0,16.68,0,17.3
			c0,0.63-0.08,1.23-0.08,1.23h0.08h4.37h0.08c0,0-0.08-0.6-0.08-1.23V2.65c1.06,0,1.67,0,2.67,0c3.68,0,4.74,2.18,4.74,4.04
			s-1.09,3.93-4.46,3.93c-1.47,0-2.45,0-2.45,0c1.42,0.91,1.42,2.65,3.35,2.65c1.26,0,0.08,0,0.59,0c5.87,0,7.74-4.04,7.74-6.58
			S99.52,0,93.64,0z"/>
		<path class="st1" d="M40.82,7.11c-4.2,0-7.61,2.81-7.61,6.27s3.41,6.27,7.61,6.27s7.61-2.81,7.61-6.27S45.02,7.11,40.82,7.11z
			 M40.82,17.43c-1.7,0-3.08-1.81-3.08-4.05s1.38-4.05,3.08-4.05s3.08,1.81,3.08,4.05S42.52,17.43,40.82,17.43z"/>
		<path class="st1" d="M75,7.11c-4.2,0-7.61,2.81-7.61,6.27s3.41,6.27,7.61,6.27c4.2,0,7.61-2.81,7.61-6.27S79.21,7.11,75,7.11z
			 M75,17.43c-1.7,0-3.08-1.81-3.08-4.05S73.31,9.33,75,9.33c1.7,0,3.08,1.81,3.08,4.05S76.7,17.43,75,17.43z"/>
		<path class="st1" d="M30.04,7.98c-1.29,0-3.41,0-3.41,0s0.26,0.44,0.26,1.44c0,0.47,0,4.72,0,7.32c-2.31,0.71-4.95-0.3-4.95-3.81
			c0-2.59,0-3.05,0-3.56c0-0.78-0.47-1.38-1.38-1.38c-1.29,0-3.47,0-3.47,0s0.26,0.44,0.26,1.44c0,0.42,0,1.08,0,3.71
			c0,6.33,6.28,7.87,9.54,5.45c0,0.06,0,0.1,0,0.13c0,4.05-5.21,4.4-8.85,1.35c0.35,1.82,2.39,4.86,6.35,4.86
			c4.66,0,7.03-2.83,7.03-8.11V9.37C31.42,8.58,30.95,7.98,30.04,7.98z"/>
		<path class="st1" d="M16.04,18.82c-0.45-0.48-6.89-9.01-6.89-9.01s6.44-8.52,6.89-9.01C16.66,0.15,16.99,0,16.99,0s-2.53,0-3.68,0
			c-1.16,0-2,0.64-2.6,1.39c-0.32,0.4-4.49,5.9-5.92,7.78v-7.8h0.01C4.79,0.6,4.32,0,3.41,0C2.12,0,0,0,0,0s0.26,0.44,0.26,1.44
			c0,0.58,0,16.33,0,16.96c0,0.63-0.08,1.23-0.08,1.23h0.08h4.52h0.08c0,0-0.08-0.6-0.08-1.23v-7.95c1.43,1.88,5.6,7.39,5.92,7.78
			c0.6,0.76,1.44,1.39,2.6,1.39c1.16,0,3.68,0,3.68,0S16.66,19.47,16.04,18.82z"/>
		<path class="st1" d="M65.75,17.75V1.38h0.01C65.75,0.6,65.28,0,64.37,0c-1.29,0-3.41,0-3.41,0s0.26,0.44,0.26,1.44
			c0,0.25,0,3.16,0,6.51c-1.12-0.53-2.41-0.84-3.78-0.84c-4.2,0-7.61,2.81-7.61,6.27c0,3.46,3.41,6.27,7.61,6.27
			c1.41,0,2.73-0.32,3.86-0.87c0.18,0.47,0.66,0.85,1.25,0.85c0.45,0,4.39,0,4.39,0S65.75,19.1,65.75,17.75z M57.44,17.43
			c-1.7,0-3.08-1.81-3.08-4.05s1.38-4.05,3.08-4.05c1.7,0,3.08,1.81,3.08,4.05S59.14,17.43,57.44,17.43z"/>
		<g>
			<path class="st0" d="M112.24,0c-1.19,0-2.82,0-4.36,0h-0.08h-1.22h-3.15h-0.08c0,0,0.08,0.5,0.08,1.09c0,0.58,0,16.68,0,17.3
				c0,0.63-0.08,1.23-0.08,1.23h0.08h4.37h0.08c0,0-0.08-0.6-0.08-1.23V2.65c1.06,0,1.67,0,2.67,0c3.68,0,4.74,2.18,4.74,4.04
				s-1.09,3.93-4.46,3.93c-1.47,0-2.45,0-2.45,0c1.42,0.91,1.42,2.65,3.35,2.65c1.26,0,0.08,0,0.59,0c5.87,0,7.74-4.04,7.74-6.58
				S118.11,0,112.24,0z"/>
			<path class="st0" d="M108.29,10.62c0,0,4.41,6.24,5.04,7.04c1.17,1.48,1.91,1.97,3.25,1.97c0.77,0,3.78,0,3.78,0
				s-0.92-0.45-1.59-1.28c-0.9-1.12-5.72-7.72-5.72-7.72H108.29z"/>
		</g>
	</g>
</g>
</svg>
